<?xml version="1.0" encoding="UTF-8"?>
<svg width="230px" height="49px" viewBox="0 0 230 49" version="1.1" xmlns="http://www.w3.org/2000/svg" xmlns:xlink="http://www.w3.org/1999/xlink">
    <!-- Generator: Sketch 42 (36781) - http://www.bohemiancoding.com/sketch -->
    <title>Logo white horizontal - EveryoneCanCode</title>
    <desc>Created with Sketch.</desc>
    <defs></defs>
    <g id="Logos" stroke="none" stroke-width="1" fill="none" fill-rule="evenodd">
        <g id="White-Logos" transform="translate(-458.000000, -367.000000)" fill="#FFFFFF">
            <g id="Logo-white-horizontal---EveryoneCanCode" transform="translate(457.000000, 360.000000)">
                <text id="learn-To-Code" font-family="Ubuntu-Medium, Ubuntu" font-size="12.2222222" font-weight="400">
                    <tspan x="64.8865435" y="51.2777778">#EveryoneCanCode</tspan>
                </text>
                <g id="Nom" transform="translate(64.886544, 7.944444)" font-size="25.6666667" font-family="Righteous-Regular, Righteous" font-weight="normal">
                    <text id="Shuttle">
                        <tspan x="0" y="25">Shuttle</tspan>
                    </text>
                    <text id="Coder">
                        <tspan x="96.1055409" y="25">Coder</tspan>
                    </text>
                </g>
                <g id="Logo">
                    <text id="{" font-family="Ubuntu" font-size="48.8888889" font-weight="normal">
                        <tspan x="0" y="46">{</tspan>
                    </text>
                    <text id="}" font-family="Ubuntu" font-size="48.8888889" font-weight="normal" line-spacing="48.8888889">
                        <tspan x="39.7889182" y="47.8333333">}</tspan>
                    </text>
                    <g id="Rocket" transform="translate(14.691293, 9.166667)">
                        <path d="M14.1299276,34.2222222 C14.2385604,34.4720314 14.3029354,34.7939143 14.3029354,35.2081637 C14.3029354,36.6832273 13.1602793,38.5613444 13.1602793,38.5613444 C13.1602793,38.5613444 12.0196349,36.6832273 12.0196349,35.2081637 C12.0196349,34.7939143 12.0833393,34.4720314 12.1919721,34.2222222 C11.5106701,34.6350721 11.0184697,35.5223494 11.0184697,37.0946777 C11.0184697,39.8635708 13.1602793,43.3888889 13.1602793,43.3888889 C13.1602793,43.3888889 15.3034301,39.8635708 15.3034301,37.0946777 C15.3034301,35.5223494 14.8119002,34.6350721 14.1299276,34.2222222 Z" id="flamme-réacteur"></path>
                        <path d="M13.1611629,8.55555556 C14.6830086,8.55555556 15.9155673,9.7864735 15.9155673,11.3053429 C15.9155673,12.8237869 14.6830086,14.0555556 13.1611629,14.0555556 C11.6397432,14.0555556 10.4063325,12.8237869 10.4063325,11.3053429 C10.4063325,9.7864735 11.6397432,8.55555556 13.1611629,8.55555556 L13.1611629,8.55555556 Z" id="intérieur-hublot-principal"></path>
                        <path d="M19.5883905,29.5460614 L21.451794,33 L23.5349885,33 L25.7097625,21.6050333 L21.239715,17.7222222 C20.6622816,23.5455204 19.8419213,28.1823021 19.5883905,29.5460614" id="aile-droite" transform="translate(22.649077, 25.361111) rotate(-359.000000) translate(-22.649077, -25.361111) "></path>
                        <path d="M0.612137203,21.6043483 L2.78594727,33 L4.87010575,33 L6.73350923,29.5458538 C6.4790144,28.1820125 5.65769015,23.5449521 5.08218478,17.7222222 L0.612137203,21.6043483" id="aile-gauche" transform="translate(3.672823, 25.361111) rotate(-1.000000) translate(-3.672823, -25.361111) "></path>
                        <polyline id="réacteur" points="16.6231878 33.6111111 17.7519789 29.9444444 8.56992084 29.9444444 9.69967833 33.6111111 16.6231878 33.6111111"></polyline>
                        <path d="M13.1611156,17.1111111 C14.3447733,17.1111111 15.3034301,18.0684917 15.3034301,19.2498346 C15.3034301,20.4308466 14.3447733,21.3888889 13.1611156,21.3888889 C11.9777892,21.3888889 11.0184697,20.4308466 11.0184697,19.2498346 C11.0184697,18.0684917 11.9777892,17.1111111 13.1611156,17.1111111 L13.1611156,17.1111111 Z M13.188496,7.33822222 C15.3750501,7.33822222 17.1459631,9.10677778 17.1459631,11.2890556 C17.1459631,13.4707222 15.3750501,15.2405 13.188496,15.2405 C11.0025541,15.2405 9.23041689,13.4707222 9.23041689,11.2890556 C9.23041689,9.10677778 11.0025541,7.33822222 13.188496,7.33822222 L13.188496,7.33822222 Z M18.4602216,28.8340556 C19.5767599,25.773 20.2562322,21.7366111 20.2562322,17.3097222 C20.2562322,7.75011111 17.0914828,0 13.188496,0 C9.28550923,0 6.12137203,7.75011111 6.12137203,17.3097222 C6.12137203,21.7366111 6.80084433,25.773 7.91615831,28.8340556 L18.4602216,28.8340556 L18.4602216,28.8340556 Z" id="cockpit"></path>
                    </g>
                </g>
            </g>
        </g>
    </g>
</svg>