<?xml version="1.0" encoding="UTF-8"?>
<svg width="193px" height="41px" viewBox="0 0 193 41" version="1.1" xmlns="http://www.w3.org/2000/svg" xmlns:xlink="http://www.w3.org/1999/xlink">
    <!-- Generator: Sketch 42 (36781) - http://www.bohemiancoding.com/sketch -->
    <title>Logo color horizontal - EveryoneCanCode</title>
    <desc>Created with Sketch.</desc>
    <defs></defs>
    <g id="Logos" stroke="none" stroke-width="1" fill="none" fill-rule="evenodd">
        <g id="Colors-Logos" transform="translate(-477.000000, -370.000000)">
            <g id="Logo-color-horizontal---EveryoneCanCode" transform="translate(476.000000, 364.000000)">
                <text id="learn-To-Code" font-family="Ubuntu-Medium, Ubuntu" font-size="10.2222222" font-weight="400" fill="#000000">
                    <tspan x="54.2585752" y="43.1777778">#EveryoneCanCode</tspan>
                </text>
                <g id="Nom" transform="translate(54.258575, 6.644444)" font-size="21.4666667" font-family="Righteous-Regular, Righteous" font-weight="normal">
                    <text id="Shuttle" fill="#1797D4">
                        <tspan x="0" y="21">Shuttle</tspan>
                    </text>
                    <text id="Coder" fill="#444C60">
                        <tspan x="80.3641161" y="21">Coder</tspan>
                    </text>
                </g>
                <g id="Logo">
                    <text id="{" font-family="Ubuntu" font-size="40.8888889" font-weight="normal" fill="#444C60">
                        <tspan x="0" y="38">{</tspan>
                    </text>
                    <text id="}" font-family="Ubuntu" font-size="40.8888889" font-weight="normal" line-spacing="40.8888889" fill="#444C60">
                        <tspan x="33.2717678" y="39.5333333">}</tspan>
                    </text>
                    <rect id="Rectangle" fill="#FFFFFF" x="19.4511873" y="13.2888889" width="7.67810026" height="13.2888889"></rect>
                    <g id="Rocket" transform="translate(12.284960, 7.666667)">
                        <path d="M11.8155429,28.6222222 C11.9063824,28.8311535 11.9602132,29.1003647 11.9602132,29.4468278 C11.9602132,30.6805174 11.0047163,32.2513062 11.0047163,32.2513062 C11.0047163,32.2513062 10.0509016,30.6805174 10.0509016,29.4468278 C10.0509016,29.1003647 10.1041717,28.8311535 10.1950112,28.6222222 C9.62530174,28.9675148 9.21372032,29.7096014 9.21372032,31.0246395 C9.21372032,33.3404411 11.0047163,36.2888889 11.0047163,36.2888889 C11.0047163,36.2888889 12.7968338,33.3404411 12.7968338,31.0246395 C12.7968338,29.7096014 12.3858131,28.9675148 11.8155429,28.6222222 Z" id="flamme-réacteur" fill="#F4B737"></path>
                        <path d="M11.0054552,7.15555556 C12.2780331,7.15555556 13.3087071,8.18505057 13.3087071,9.45537769 C13.3087071,10.7253491 12.2780331,11.7555556 11.0054552,11.7555556 C9.73323357,11.7555556 8.70184697,10.7253491 8.70184697,9.45537769 C8.70184697,8.18505057 9.73323357,7.15555556 11.0054552,7.15555556 L11.0054552,7.15555556 Z" id="intérieur-hublot-principal" fill="#4A4A4A"></path>
                        <path d="M16.3799472,24.7112514 L17.9381381,27.6 L19.6801197,27.6 L21.4986807,18.0696642 L17.7607961,14.8222222 C17.2779424,19.6926171 16.5919515,23.5706527 16.3799472,24.7112514" id="aile-droite" fill="#1797D4" transform="translate(18.939314, 21.211111) rotate(-359.000000) translate(-18.939314, -21.211111) "></path>
                        <path d="M0.511873351,18.0690913 L2.32962832,27.6 L4.07241601,27.6 L5.63060686,24.7110777 C5.41779652,23.5704104 4.73099952,19.6921417 4.24975796,14.8222222 L0.511873351,18.0690913" id="aile-gauche" fill="#1797D4" transform="translate(3.071240, 21.211111) rotate(-1.000000) translate(-3.071240, -21.211111) "></path>
                        <polyline id="réacteur" fill="#4A4A4A" points="13.9004243 28.1111111 14.8443272 25.0444444 7.16622691 25.0444444 8.11093791 28.1111111 13.9004243 28.1111111"></polyline>
                        <path d="M11.0054156,14.3111111 C11.9951984,14.3111111 12.7968338,15.1118295 12.7968338,16.0998617 C12.7968338,17.0876172 11.9951984,17.8888889 11.0054156,17.8888889 C10.0159099,17.8888889 9.21372032,17.0876172 9.21372032,16.0998617 C9.21372032,15.1118295 10.0159099,14.3111111 11.0054156,14.3111111 L11.0054156,14.3111111 Z M11.0283113,6.13742222 C12.856723,6.13742222 14.3375726,7.61657778 14.3375726,9.44175556 C14.3375726,11.2664222 12.856723,12.7466 11.0283113,12.7466 C9.20041161,12.7466 7.71853826,11.2664222 7.71853826,9.44175556 C7.71853826,7.61657778 9.20041161,6.13742222 11.0283113,6.13742222 L11.0283113,6.13742222 Z M15.4365646,24.1157556 C16.3702216,21.5556 16.9384011,18.1797111 16.9384011,14.4772222 C16.9384011,6.48191111 14.2920158,0 11.0283113,0 C7.76460686,0 5.11873351,6.48191111 5.11873351,14.4772222 C5.11873351,18.1797111 5.68691293,21.5556 6.61954617,24.1157556 L15.4365646,24.1157556 L15.4365646,24.1157556 Z" id="cockpit" fill="#1797D4"></path>
                    </g>
                </g>
            </g>
        </g>
    </g>
</svg>